<svg width="16" height="16" viewBox="0 0 16 16" fill="none" xmlns="http://www.w3.org/2000/svg">
<g clip-path="url(#clip0_1_608)">
<path d="M13.9591 6.28673C13.9591 10.6629 8.33263 14.4139 8.33263 14.4139C8.33263 14.4139 2.70612 10.6629 2.70612 6.28673C2.70612 4.79449 3.29891 3.36336 4.35408 2.30819C5.40926 1.25301 6.84039 0.660217 8.33263 0.660217C9.82488 0.660217 11.256 1.25301 12.3112 2.30819C13.3664 3.36336 13.9591 4.79449 13.9591 6.28673Z" stroke="white" stroke-width="2" stroke-linecap="round" stroke-linejoin="round"/>
<path d="M8.33263 8.16224C9.36844 8.16224 10.2081 7.32254 10.2081 6.28673C10.2081 5.25092 9.36844 4.41122 8.33263 4.41122C7.29682 4.41122 6.45712 5.25092 6.45712 6.28673C6.45712 7.32254 7.29682 8.16224 8.33263 8.16224Z" stroke="white" stroke-width="2" stroke-linecap="round" stroke-linejoin="round"/>
</g>
<defs>
<clipPath id="clip0_1_608">
<rect width="15.004" height="15.004" fill="white" transform="translate(0.830612 0.0350342)"/>
</clipPath>
</defs>
</svg>
