<svg width="16" height="16" viewBox="0 0 16 16" fill="none" xmlns="http://www.w3.org/2000/svg">
<g clip-path="url(#clip0_1_631)">
<path d="M9.79589 3.18685C10.4053 3.30575 10.9654 3.60379 11.4044 4.04283C11.8434 4.48186 12.1415 5.04192 12.2604 5.65132L9.79589 3.18685ZM9.79589 0.691193C11.062 0.831846 12.2426 1.39882 13.144 2.29903C14.0453 3.19923 14.6138 4.37916 14.756 5.64508L9.79589 0.691193ZM14.1321 10.6239V12.4957C14.1328 12.6694 14.0972 12.8414 14.0276 13.0006C13.958 13.1598 13.8559 13.3028 13.7279 13.4202C13.5998 13.5377 13.4487 13.6271 13.284 13.6828C13.1194 13.7385 12.945 13.7591 12.772 13.7435C10.8521 13.5349 9.00789 12.8788 7.38758 11.8281C5.88009 10.8702 4.60201 9.59208 3.64409 8.08459C2.58966 6.45692 1.93346 4.60376 1.72867 2.67524C1.71308 2.50271 1.73358 2.32882 1.78887 2.16465C1.84417 2.00047 1.93304 1.84961 2.04984 1.72166C2.16663 1.59372 2.30879 1.49149 2.46725 1.4215C2.62572 1.3515 2.79702 1.31527 2.97026 1.31511H4.842C5.14479 1.31213 5.43834 1.41935 5.66792 1.61679C5.8975 1.81423 6.04746 2.08842 6.08984 2.38824C6.16884 2.98724 6.31535 3.57538 6.52658 4.14145C6.61052 4.36476 6.62869 4.60746 6.57893 4.84078C6.52917 5.0741 6.41356 5.28827 6.24581 5.45791L5.45344 6.25028C6.34162 7.81228 7.63493 9.1056 9.19693 9.99377L9.98931 9.2014C10.1589 9.03365 10.3731 8.91805 10.6064 8.86829C10.8398 8.81853 11.0825 8.83669 11.3058 8.92064C11.8718 9.13187 12.46 9.27838 13.059 9.35738C13.362 9.40014 13.6388 9.55279 13.8367 9.78632C14.0346 10.0198 14.1397 10.3179 14.1321 10.6239Z" stroke="white" stroke-width="2" stroke-linecap="round" stroke-linejoin="round"/>
</g>
<defs>
<clipPath id="clip0_1_631">
<rect width="14.974" height="14.974" fill="white" transform="translate(0.405975 0.0672913)"/>
</clipPath>
</defs>
</svg>
