<svg width="16" height="16" viewBox="0 0 16 16" fill="none" xmlns="http://www.w3.org/2000/svg">
<g clip-path="url(#clip0_1_621)">
<path d="M9.91596 3.50052C10.5266 3.61966 11.0878 3.91829 11.5277 4.35821C11.9676 4.79813 12.2662 5.35931 12.3854 5.96994L9.91596 3.50052ZM9.91596 0.999847C11.1846 1.14078 12.3676 1.7089 13.2708 2.61091C14.1739 3.51292 14.7435 4.69522 14.886 5.96368L9.91596 0.999847ZM14.2609 10.9525V12.828C14.2616 13.0021 14.2259 13.1745 14.1562 13.334C14.0864 13.4935 13.9841 13.6367 13.8558 13.7544C13.7275 13.8722 13.576 13.9618 13.4111 14.0175C13.2462 14.0733 13.0714 14.094 12.898 14.0784C10.9743 13.8693 9.12637 13.212 7.5028 12.1591C5.99229 11.1993 4.71164 9.91861 3.75179 8.40809C2.69525 6.77716 2.03774 4.92027 1.83253 2.98788C1.81691 2.815 1.83745 2.64076 1.89286 2.47626C1.94826 2.31176 2.03731 2.16059 2.15434 2.03239C2.27137 1.90419 2.41381 1.80176 2.5726 1.73162C2.73138 1.66148 2.90303 1.62518 3.07661 1.62502H4.95212C5.25552 1.62203 5.54965 1.72947 5.77969 1.92731C6.00974 2.12514 6.15999 2.39988 6.20245 2.70031C6.28162 3.30051 6.42842 3.88983 6.64007 4.45703C6.72419 4.68079 6.74239 4.92398 6.69253 5.15777C6.64267 5.39156 6.52683 5.60616 6.35875 5.77613L5.56478 6.5701C6.45475 8.13524 7.75066 9.43115 9.31579 10.3211L10.1098 9.52714C10.2797 9.35906 10.4943 9.24322 10.7281 9.19336C10.9619 9.1435 11.2051 9.16171 11.4289 9.24582C11.9961 9.45747 12.5854 9.60428 13.1856 9.68344C13.4893 9.72628 13.7666 9.87924 13.9649 10.1132C14.1631 10.3472 14.2685 10.6459 14.2609 10.9525Z" stroke="white" stroke-width="2" stroke-linecap="round" stroke-linejoin="round"/>
</g>
<defs>
<clipPath id="clip0_1_621">
<rect width="15.004" height="15.004" fill="white" transform="translate(0.507172 0.374664)"/>
</clipPath>
</defs>
</svg>
