<svg width="92" height="18" viewBox="0 0 92 18" fill="none" xmlns="http://www.w3.org/2000/svg">
<g clip-path="url(#clip0_1_276)">
<path d="M6.38071 13.0434L9.24137 14.9389C9.79955 15.318 10.4275 14.7873 10.288 14.1049L9.52046 10.5413L12.102 8.11495C12.5904 7.66002 12.3113 6.82598 11.6834 6.75015L8.33433 6.44686L7.00866 3.11069C6.72957 2.50412 5.96208 2.50412 5.68299 3.11069L4.35732 6.52269L1.00826 6.82598C0.380308 6.82598 0.170991 7.66002 0.589624 8.11495L3.17119 10.5413L2.4037 14.1049C2.26416 14.7873 2.89211 15.2422 3.45028 14.9389L6.38071 13.0434Z" fill="#FFBB0C"/>
</g>
<g clip-path="url(#clip1_1_276)">
<path d="M25.9285 13.0434L28.7892 14.9389C29.3474 15.318 29.9753 14.7873 29.8358 14.1049L29.0683 10.5413L31.6498 8.11495C32.1383 7.66002 31.8592 6.82598 31.2312 6.75015L27.8822 6.44686L26.5565 3.11069C26.2774 2.50412 25.5099 2.50412 25.2308 3.11069L23.9051 6.52269L20.5561 6.82598C19.9281 6.82598 19.7188 7.66002 20.1374 8.11495L22.719 10.5413L21.9515 14.1049C21.812 14.7873 22.4399 15.2422 22.9981 14.9389L25.9285 13.0434Z" fill="#FFBB0C"/>
</g>
<g clip-path="url(#clip2_1_276)">
<path d="M45.4764 13.0434L48.337 14.9389C48.8952 15.318 49.5232 14.7873 49.3836 14.1049L48.6161 10.5413L51.1977 8.11495C51.6861 7.66002 51.407 6.82598 50.7791 6.75015L47.43 6.44686L46.1043 3.11069C45.8252 2.50412 45.0578 2.50412 44.7787 3.11069L43.453 6.52269L40.1039 6.82598C39.476 6.82598 39.2667 7.66002 39.6853 8.11495L42.2669 10.5413L41.4994 14.1049C41.3598 14.7873 41.9878 15.2422 42.546 14.9389L45.4764 13.0434Z" fill="#FFBB0C"/>
</g>
<g clip-path="url(#clip3_1_276)">
<path d="M65.0242 13.0434L67.8849 14.9389C68.443 15.318 69.071 14.7873 68.9314 14.1049L68.164 10.5413L70.7455 8.11495C71.2339 7.66002 70.9548 6.82598 70.3269 6.75015L66.9778 6.44686L65.6522 3.11069C65.3731 2.50412 64.6056 2.50412 64.3265 3.11069L63.0008 6.52269L59.6518 6.82598C59.0238 6.82598 58.8145 7.66002 59.2331 8.11495L61.8147 10.5413L61.0472 14.1049C60.9076 14.7873 61.5356 15.2422 62.0938 14.9389L65.0242 13.0434Z" fill="#FFBB0C"/>
</g>
<g clip-path="url(#clip4_1_276)">
<path d="M88.1007 9.91408L90.4566 7.27308C90.9242 6.76016 90.6344 5.93536 90.0167 5.91151L86.7808 5.82935L85.381 2.3753C85.1197 1.72289 84.3366 1.81254 84.1095 2.48034L82.9842 6.06812L79.7977 6.65589C79.2085 6.80442 79.0098 7.6446 79.4546 8.10712L82.0195 10.4414L81.4112 14.1862C81.2486 14.8736 81.9053 15.3186 82.4014 14.9781L85.1375 12.78L87.9761 14.5425C88.5216 14.8719 89.0718 14.3022 88.9578 13.6127L88.1007 9.91408Z" fill="url(#paint0_linear_1_276)"/>
</g>
<defs>
<linearGradient id="paint0_linear_1_276" x1="79.2424" y1="7.24683" x2="89.9782" y2="9.78505" gradientUnits="userSpaceOnUse">
<stop offset="0.0656249" stop-color="#FFB803"/>
<stop offset="0.815625" stop-color="#FFBB0C" stop-opacity="0"/>
</linearGradient>
<clipPath id="clip0_1_276">
<rect width="11.931" height="12.4348" fill="white" transform="translate(0.380249 2.65576)"/>
</clipPath>
<clipPath id="clip1_1_276">
<rect width="11.931" height="12.4348" fill="white" transform="translate(19.9281 2.65576)"/>
</clipPath>
<clipPath id="clip2_1_276">
<rect width="11.931" height="12.4348" fill="white" transform="translate(39.4759 2.65576)"/>
</clipPath>
<clipPath id="clip3_1_276">
<rect width="11.931" height="12.4348" fill="white" transform="translate(59.0237 2.65576)"/>
</clipPath>
<clipPath id="clip4_1_276">
<rect width="13.4212" height="11.0759" fill="white" transform="matrix(0.230083 -0.973171 0.956853 0.290573 77.6942 13.7944)"/>
</clipPath>
</defs>
</svg>
