<svg width="98" height="101" viewBox="0 0 98 101" fill="none" xmlns="http://www.w3.org/2000/svg">
<g filter="url(#filter0_d_1_296)">
<path d="M33.7188 68.875C33.3126 68.875 32.9232 68.7137 32.636 68.4266C32.3488 68.1394 32.1875 67.7499 32.1875 67.3438V33.6563C32.1875 33.3902 32.2569 33.1287 32.3888 32.8976C32.5207 32.6665 32.7105 32.4738 32.9396 32.3384C33.1686 32.203 33.429 32.1296 33.6951 32.1255C33.9611 32.1214 34.2237 32.1867 34.4568 32.3149L65.0818 49.1587C65.3219 49.2909 65.5221 49.4851 65.6615 49.721C65.801 49.9569 65.8745 50.226 65.8745 50.5C65.8745 50.7741 65.801 51.0432 65.6615 51.2791C65.5221 51.515 65.3219 51.7092 65.0818 51.8414L34.4568 68.6852C34.2307 68.8096 33.9768 68.875 33.7188 68.875Z" fill="white"/>
</g>
<defs>
<filter id="filter0_d_1_296" x="-9" y="-6" width="113" height="113" filterUnits="userSpaceOnUse" color-interpolation-filters="sRGB">
<feFlood flood-opacity="0" result="BackgroundImageFix"/>
<feColorMatrix in="SourceAlpha" type="matrix" values="0 0 0 0 0 0 0 0 0 0 0 0 0 0 0 0 0 0 127 0" result="hardAlpha"/>
<feOffset/>
<feGaussianBlur stdDeviation="16"/>
<feColorMatrix type="matrix" values="0 0 0 0 0 0 0 0 0 0 0 0 0 0 0 0 0 0 0.25 0"/>
<feBlend mode="normal" in2="BackgroundImageFix" result="effect1_dropShadow_1_296"/>
<feBlend mode="normal" in="SourceGraphic" in2="effect1_dropShadow_1_296" result="shape"/>
</filter>
</defs>
</svg>
