<svg width="96" height="24" viewBox="0 0 96 24" fill="none" xmlns="http://www.w3.org/2000/svg">
<g clip-path="url(#clip0_1_18)">
<path d="M95.9767 10.2242C95.9767 9.69475 95.9306 9.00415 95.8385 8.17544C95.7695 7.34672 95.6544 6.61008 95.5163 5.96553C95.3551 5.22889 95.0098 4.63037 94.4804 4.12393C93.9509 3.6175 93.3294 3.34126 92.6157 3.24918C90.4058 2.99596 87.0449 2.88086 82.556 2.88086C78.0672 2.88086 74.7063 2.99596 72.4964 3.24918C71.7827 3.34126 71.1612 3.6175 70.6317 4.12393C70.1023 4.63037 69.757 5.22889 69.5958 5.96553C69.4347 6.61008 69.3426 7.34672 69.2505 8.17544C69.1815 9.00415 69.1354 9.69475 69.1124 10.2242C69.1124 10.7767 69.1124 11.5133 69.1124 12.4802C69.1124 13.447 69.1124 14.1836 69.1354 14.7361C69.1354 15.2656 69.1815 15.9562 69.2736 16.7849C69.3196 17.6136 69.4347 18.3502 69.5728 18.9948C69.734 19.7314 70.0793 20.3299 70.6087 20.8364C71.1382 21.3428 71.7597 21.6191 72.4733 21.7111C74.6832 21.9644 78.0441 22.0795 82.533 22.0795C87.0219 22.0795 90.3828 21.9644 92.5927 21.7111C93.3063 21.6421 93.9279 21.3428 94.4573 20.8364C94.9868 20.3299 95.3321 19.7314 95.4932 18.9948C95.6544 18.3502 95.7465 17.6136 95.8385 16.7849C95.9076 15.9562 95.9536 15.2656 95.9767 14.7361C95.9767 14.2066 95.9997 13.447 95.9997 12.4802C95.9997 11.5133 95.9997 10.7767 95.9767 10.2242ZM87.8736 13.2859L80.185 18.097C80.0469 18.1891 79.8857 18.2582 79.6786 18.2582C79.5174 18.2582 79.3793 18.2121 79.2182 18.1431C78.8959 17.9589 78.7117 17.6827 78.7117 17.2913V7.69202C78.7117 7.30068 78.8729 7.02444 79.2182 6.84028C79.5635 6.65612 79.8857 6.67914 80.185 6.8633L84.0293 9.26888L87.8736 11.6745C88.1729 11.8356 88.334 12.1118 88.334 12.4802C88.311 12.8485 88.1729 13.1247 87.8736 13.2859Z" fill="#8F8F8F"/>
</g>
<g clip-path="url(#clip1_1_18)">
<path d="M6.38037 7.88244V6.05375C6.38037 5.77846 6.39953 5.56217 6.41869 5.42452C6.43785 5.26722 6.49533 5.12957 6.59114 4.99193C6.68694 4.85428 6.82106 4.75597 7.01266 4.69698C7.20426 4.63799 7.47251 4.61832 7.79823 4.61832H9.58014V0.960938H6.72526C5.07747 0.960938 3.9087 1.3542 3.19977 2.1604C2.49084 2.9666 2.12679 4.12674 2.12679 5.69981V7.88244H0V11.5202H2.12679V22.0794H6.38037V11.5202H9.21609L9.5993 7.88244H6.38037Z" fill="#8F8F8F"/>
</g>
<g clip-path="url(#clip2_1_18)">
<path d="M44.0889 1.9209H34.6231C31.4053 1.9209 28.7968 4.52947 28.7968 7.74722V17.213C28.7968 20.4308 31.4053 23.0394 34.6231 23.0394H44.0889C47.3066 23.0394 49.9152 20.4308 49.9152 17.213V7.74722C49.9152 4.52947 47.3066 1.9209 44.0889 1.9209ZM48.0408 17.213C48.0408 19.3999 46.2601 21.1649 44.0889 21.1649H34.6231C32.4363 21.1649 30.6712 19.3842 30.6712 17.213V7.74722C30.6712 5.57602 32.4519 3.79532 34.6231 3.79532H44.0889C46.2757 3.79532 48.0408 5.57602 48.0408 7.74722V17.213Z" fill="#8F8F8F"/>
<path d="M39.356 7.04419C36.3569 7.04419 33.9045 9.48093 33.9045 12.48C33.9045 15.4791 36.3413 17.9314 39.356 17.9314C42.355 17.9314 44.8074 15.4947 44.8074 12.48C44.8074 9.48093 42.355 7.04419 39.356 7.04419ZM39.356 16.057C37.3878 16.057 35.779 14.4638 35.779 12.4956C35.7946 10.5119 37.3878 8.91861 39.356 8.91861C41.3241 8.91861 42.933 10.5119 42.933 12.48C42.933 14.4481 41.3241 16.057 39.356 16.057Z" fill="#8F8F8F"/>
<path d="M45.0261 5.45093C44.6668 5.45093 44.3075 5.59151 44.0576 5.85705C43.8077 6.10697 43.6515 6.46624 43.6515 6.8255C43.6515 7.18477 43.7921 7.54403 44.0576 7.79395C44.3075 8.04387 44.6668 8.20008 45.0261 8.20008C45.3853 8.20008 45.7446 8.05949 45.9945 7.79395C46.2444 7.54403 46.4006 7.18477 46.4006 6.8255C46.4006 6.46624 46.2601 6.10697 45.9945 5.85705C45.7446 5.59151 45.4009 5.45093 45.0261 5.45093Z" fill="#8F8F8F"/>
</g>
<defs>
<clipPath id="clip0_1_18">
<rect width="26.8872" height="19.1986" fill="white" transform="translate(69.1124 2.88086)"/>
</clipPath>
<clipPath id="clip1_1_18">
<rect width="9.5993" height="21.1185" fill="white" transform="translate(0 0.960938)"/>
</clipPath>
<clipPath id="clip2_1_18">
<rect width="21.1185" height="21.1185" fill="white" transform="translate(28.7968 1.9209)"/>
</clipPath>
</defs>
</svg>
