<svg width="16" height="16" viewBox="0 0 16 16" fill="none" xmlns="http://www.w3.org/2000/svg">
<g clip-path="url(#clip0_1_618)">
<path d="M13.7927 6.28673C13.7927 10.6629 8.16621 14.4139 8.16621 14.4139C8.16621 14.4139 2.5397 10.6629 2.5397 6.28673C2.5397 4.79449 3.13249 3.36336 4.18766 2.30819C5.24284 1.25301 6.67397 0.660217 8.16621 0.660217C9.65846 0.660217 11.0896 1.25301 12.1448 2.30819C13.1999 3.36336 13.7927 4.79449 13.7927 6.28673Z" stroke="white" stroke-width="2" stroke-linecap="round" stroke-linejoin="round"/>
<path d="M8.16622 8.16224C9.20203 8.16224 10.0417 7.32254 10.0417 6.28673C10.0417 5.25092 9.20203 4.41122 8.16622 4.41122C7.1304 4.41122 6.29071 5.25092 6.29071 6.28673C6.29071 7.32254 7.1304 8.16224 8.16622 8.16224Z" stroke="white" stroke-width="2" stroke-linecap="round" stroke-linejoin="round"/>
</g>
<defs>
<clipPath id="clip0_1_618">
<rect width="15.004" height="15.004" fill="white" transform="translate(0.664192 0.0350342)"/>
</clipPath>
</defs>
</svg>
